<svg width="16" height="16" viewBox="0 0 16 16" fill="none" xmlns="http://www.w3.org/2000/svg">
<g clip-path="url(#clip0_1640_3979)">
<rect width="16" height="16" rx="4" fill="#181727"/>
<path d="M6.19241 2.285C6.40141 1.779 6.69841 1.5975 7.08341 1.7405C7.19341 1.4985 7.28691 1.3445 7.36391 1.2785C7.45191 1.2125 7.53991 1.163 7.62791 1.13C7.71591 1.086 7.80941 1.042 7.90841 0.997999C8.00741 0.953999 8.16141 0.915499 8.37041 0.8825C8.57941 0.849499 8.81041 0.832999 9.06341 0.832999C9.31641 0.822 9.56941 0.832999 9.82241 0.865999C10.0864 0.898999 10.3064 0.970499 10.4824 1.0805C10.9114 1.3335 11.0049 1.7405 10.7629 2.3015C10.7849 2.2905 10.7794 2.3015 10.7464 2.3345L10.5979 2.615L10.4824 2.7635C10.4274 2.8185 10.2569 3.154 9.97091 3.77C9.73991 4.21 9.50341 4.6445 9.26141 5.0735C8.86541 5.8105 8.62341 6.2835 8.53541 6.4925C8.92041 6.2835 9.36591 5.981 9.87191 5.585C10.8289 4.848 11.4394 4.408 11.7034 4.265C11.9674 4.122 12.1489 4.034 12.2479 4.001C12.3579 3.968 12.4624 3.9625 12.5614 3.9845C12.6604 3.9955 12.7649 4.023 12.8749 4.067L13.2874 4.232C13.5514 4.32 13.6944 4.639 13.7164 5.189C13.7274 5.728 13.6174 6.135 13.3864 6.41C12.3854 7.708 11.2579 8.577 10.0039 9.017C9.61891 9.16 9.22291 9.281 8.81591 9.38C9.39891 9.446 9.95441 9.831 10.4824 10.535C10.9114 11.107 11.2194 11.6955 11.4064 12.3005C11.6044 12.9055 11.7584 13.3565 11.8684 13.6535C11.9784 13.9395 12.0224 14.1595 12.0004 14.3135C11.9894 14.4785 11.8959 14.5995 11.7199 14.6765C11.5549 14.7645 11.2689 14.847 10.8619 14.924C10.6749 14.957 10.2899 14.737 9.70691 14.264C9.45391 14.055 9.18441 13.8295 8.89841 13.5875C8.61241 13.3345 8.32641 13.098 8.04041 12.878C7.38041 12.361 6.91841 12.0915 6.65441 12.0695C6.63241 12.0695 6.58841 12.0585 6.52241 12.0365L6.22541 12.779C6.07141 13.142 5.91191 13.527 5.74691 13.934C5.59291 14.33 5.40591 14.6875 5.18591 15.0065C4.84491 15.2375 4.44891 15.331 3.99791 15.287C3.48091 15.232 3.13991 15.023 2.97491 14.66C2.86491 14.319 3.04641 13.318 3.51941 11.657C3.83841 10.491 4.11341 9.468 4.34441 8.588C4.57541 7.708 4.77341 6.982 4.93841 6.41C5.10341 5.827 5.22441 5.376 5.30141 5.057C5.37841 4.727 5.45541 4.408 5.53241 4.1C5.71941 3.385 5.93941 2.78 6.19241 2.285Z" fill="#687BE0"/>
</g>
<rect x="0.2" y="0.2" width="15.6" height="15.6" rx="3.8" stroke="#5A5A5A" stroke-width="0.4"/>
<defs>
<clipPath id="clip0_1640_3979">
<rect width="16" height="16" rx="4" fill="white"/>
</clipPath>
</defs>
</svg>
