<svg width="36" height="20" viewBox="0 0 36 20" fill="none" xmlns="http://www.w3.org/2000/svg">
<g clip-path="url(#clip0_787_3737)">
<path d="M30.2515 20.2695C28.8982 20.2695 28.0956 19.577 28.0342 18.5795H29.3281C29.3281 18.912 29.5124 19.3546 30.3129 19.3822C30.8678 19.3822 31.1748 19.0497 31.1748 18.7998C31.1134 18.4122 30.62 18.3847 30.1287 18.3C29.6846 18.2475 29.2495 18.1364 28.8347 17.9696C28.6238 17.8515 28.4492 17.6781 28.3297 17.4679C28.2103 17.2578 28.1506 17.0189 28.157 16.7773C28.157 15.8899 28.8982 15.1974 30.1901 15.1974C31.4226 15.1974 32.2231 15.8349 32.2824 16.8048H31.052C31.052 16.557 30.9906 16.1399 30.2515 16.1399C29.7581 16.1399 29.451 16.2224 29.3896 16.5824C29.3896 17.0822 30.4357 17.0547 31.2363 17.2475C31.9754 17.4423 32.4688 17.9124 32.4688 18.5795C32.4688 19.7994 31.484 20.2695 30.2515 20.2695Z" fill="black"/>
<path d="M6.67188 12.0854L10.9202 9.61816L13.1989 13.5277H7.47249" fill="black"/>
<path fill-rule="evenodd" clip-rule="evenodd" d="M16.1655 15.1875V20.1219H15.0469V15.1875H16.1655Z" fill="black"/>
<path d="M4.70026 17.7285C4.70026 18.5036 5.37795 19.141 6.11493 19.141C6.91757 19.141 7.53172 18.5036 7.53172 17.7285C7.53172 16.9809 6.91757 16.316 6.11493 16.316C5.74412 16.3286 5.39191 16.4814 5.12935 16.7436C4.8668 17.0057 4.71345 17.3577 4.70026 17.7285ZM6.05352 20.2783C4.70026 20.2783 3.53125 19.1411 3.53125 17.7285C3.53125 16.3159 4.70026 15.2062 6.05352 15.2062C6.60838 15.2062 7.10181 15.346 7.53172 15.6489V15.2613H8.76427V20.1661H7.53172V19.8611C7.16323 20.1385 6.60838 20.2783 6.05352 20.2783Z" fill="black"/>
<path d="M22.4967 13.5267L16.5859 3.21739L20.8343 0.722656L28.2232 13.5267" fill="black"/>
<path d="M10.3655 17.7282C10.3655 18.5033 10.9817 19.1407 11.7823 19.1407C12.5192 19.1407 13.1991 18.5033 13.1991 17.7282C13.1853 17.3572 13.0315 17.0052 12.7687 16.7431C12.5058 16.481 12.1533 16.3282 11.7823 16.3156C11.4078 16.3173 11.049 16.4665 10.7838 16.7309C10.5186 16.9954 10.3683 17.3537 10.3655 17.7282ZM11.7209 20.278C11.387 20.2786 11.0564 20.2128 10.7482 20.0846C10.44 19.9563 10.1604 19.7681 9.92551 19.5309C9.69065 19.2937 9.50528 19.0121 9.38012 18.7027C9.25497 18.3932 9.19254 18.062 9.19646 17.7282C9.19646 16.3156 10.3041 15.2059 11.7209 15.2059C12.2736 15.2059 12.767 15.3457 13.1991 15.6485V13.571H14.4295V20.1657H13.1991V19.8607C12.7576 20.1411 12.2437 20.2862 11.7209 20.278Z" fill="black"/>
<path d="M11.6602 7.67875L15.97 5.24121L20.7115 13.5259H16.2156V14.7458H14.9851V13.5259" fill="black"/>
<path d="M31.67 14.7849C31.5091 14.7802 31.356 14.7146 31.2416 14.6014C31.1272 14.4882 31.0601 14.3358 31.0537 14.175C31.0601 14.0142 31.1272 13.8618 31.2416 13.7486C31.356 13.6354 31.5091 13.5698 31.67 13.5651C31.751 13.5628 31.8317 13.577 31.907 13.6067C31.9824 13.6365 32.051 13.6812 32.1086 13.7382C32.1662 13.7952 32.2117 13.8633 32.2422 13.9384C32.2727 14.0135 32.2877 14.094 32.2863 14.175C32.2877 14.256 32.2727 14.3365 32.2422 14.4116C32.2117 14.4867 32.1662 14.5548 32.1086 14.6118C32.051 14.6689 31.9824 14.7136 31.907 14.7434C31.8317 14.7731 31.751 14.7872 31.67 14.7849ZM31.67 13.6498C31.3608 13.6498 31.1765 13.8976 31.1765 14.175C31.1765 14.4524 31.3608 14.7023 31.67 14.7023C31.9771 14.7023 32.1613 14.4524 32.1613 14.175C32.1613 13.8976 31.9771 13.6498 31.67 13.6498Z" fill="black"/>
<path d="M31.7971 14.5091L31.6743 14.2317H31.5515V14.5091H31.4583V13.8441H31.7357C31.7971 13.8441 31.92 13.9288 31.92 14.0389C31.9221 14.0799 31.9114 14.1204 31.8894 14.155C31.8673 14.1895 31.8351 14.2163 31.7971 14.2317L31.92 14.5091M31.6743 13.9288H31.5515V14.1491H31.6743C31.7971 14.1491 31.7971 14.1215 31.7971 14.0389C31.7971 13.9818 31.7971 13.9288 31.6743 13.9288ZM23.5378 17.7281C23.5378 18.5032 24.1541 19.1407 24.9546 19.1407C25.6937 19.1407 26.3693 18.5032 26.3693 17.7281C26.3566 17.3572 26.2034 17.0048 25.9407 16.7426C25.6781 16.4803 25.3256 16.3277 24.9546 16.3156C24.5801 16.3172 24.2213 16.4665 23.9561 16.7309C23.6909 16.9953 23.5406 17.3536 23.5378 17.7281ZM24.8911 20.2779C24.5575 20.2782 24.2271 20.2123 23.9191 20.0839C23.6112 19.9555 23.3318 19.7672 23.0971 19.53C22.8625 19.2929 22.6773 19.0115 22.5523 18.7021C22.4272 18.3928 22.3649 18.0617 22.3688 17.7281C22.3688 16.3156 23.4764 15.2058 24.8911 15.2058C25.4459 15.2058 25.9394 15.3456 26.3693 15.6485V15.2609H27.5404V20.1657H26.3693V19.8607C25.9281 20.1416 25.4141 20.2868 24.8911 20.2779ZM17.877 17.7281C17.877 18.5032 18.5547 19.1407 19.2938 19.1407C20.0943 19.1407 20.7106 18.5032 20.7106 17.7281C20.7078 17.3536 20.5575 16.9953 20.2923 16.7309C20.0271 16.4665 19.6683 16.3172 19.2938 16.3156C18.9226 16.3277 18.5699 16.4802 18.3069 16.7425C18.0439 17.0047 17.8902 17.357 17.877 17.7281ZM20.7106 13.5709H21.941V20.1657H20.7106V19.8607C20.2956 20.1488 19.7987 20.2951 19.2938 20.2779C17.877 20.2779 16.708 19.1407 16.708 17.7281C16.708 16.3156 17.877 15.2058 19.2938 15.2058C19.8465 15.2058 20.34 15.3456 20.7106 15.6485V13.5709Z" fill="black"/>
</g>
<defs>
<clipPath id="clip0_787_3737">
<rect width="36" height="20" fill="white"/>
</clipPath>
</defs>
</svg>
