<svg width="41" height="20" viewBox="0 0 41 20" fill="none" xmlns="http://www.w3.org/2000/svg">
<path fill-rule="evenodd" clip-rule="evenodd" d="M0.444336 20H20.8767L40.8737 0H0.444336V20Z" fill="url(#paint0_linear_770_5645)"/>
<path fill-rule="evenodd" clip-rule="evenodd" d="M24.4375 3.7606H20.4571V13.2233L16.9807 3.75766H13.5336L10.566 11.6714C10.2483 9.67628 8.1895 8.98707 6.56205 8.4704C5.4895 8.12628 4.35126 7.61942 4.36597 7.05864C4.37479 6.59981 4.97675 6.17628 6.16793 6.23707C6.96891 6.27922 7.67479 6.34393 9.08068 7.02138L10.463 4.61452C9.17577 3.96256 7.40519 3.54981 5.95126 3.54785H5.94244C4.24832 3.54785 2.83656 4.09687 1.96205 5.00177C1.35648 5.62343 1.01528 6.45551 1.01009 7.32334C0.987538 8.54393 1.43558 9.41158 2.37675 10.0979C3.17087 10.6802 4.18656 11.0577 5.08264 11.3351C6.18754 11.6773 7.0895 11.9753 7.07871 12.6096C7.07248 12.8435 6.97913 13.0665 6.81695 13.2351C6.54146 13.5194 6.11793 13.6273 5.53362 13.6371C4.40715 13.6606 3.57283 13.4841 2.23852 12.6969L1.01009 15.139C2.3853 15.9196 3.93861 16.3322 5.51989 16.3371H5.72675C7.12283 16.3126 8.25028 15.9145 9.15028 15.189C9.20224 15.1488 9.24832 15.1067 9.29636 15.0635L8.89244 16.1273H12.5032L13.1101 14.2822C13.7955 14.5095 14.5135 14.6231 15.2356 14.6184C15.9395 14.6219 16.6396 14.5144 17.3101 14.2998L17.8983 16.1273H23.7944V12.3037H25.0797C28.1885 12.3037 30.0268 10.7204 30.0268 8.06844C30.0268 5.11648 28.2405 3.7606 24.4375 3.7606ZM15.2395 11.8626C14.8047 11.8652 14.373 11.7895 13.965 11.639L15.2268 7.65962H15.2483L16.4885 11.6508C16.0871 11.7912 15.6648 11.8628 15.2395 11.8626ZM24.6709 9.5753H23.7944V6.36354H24.6709C25.8405 6.36354 26.7728 6.7557 26.7728 7.94589C26.7728 9.18119 25.8405 9.5704 24.6709 9.5704" fill="white"/>
<defs>
<linearGradient id="paint0_linear_770_5645" x1="20.659" y1="0" x2="20.659" y2="20" gradientUnits="userSpaceOnUse">
<stop stop-color="#00B8F1"/>
<stop offset="0.02" stop-color="#01B6F0"/>
<stop offset="0.31" stop-color="#0D90D9"/>
<stop offset="0.58" stop-color="#1775C8"/>
<stop offset="0.82" stop-color="#1C65BF"/>
<stop offset="1" stop-color="#1E5FBB"/>
</linearGradient>
</defs>
</svg>
