<svg width="16" height="10" viewBox="0 0 16 10" fill="none" xmlns="http://www.w3.org/2000/svg">
<path d="M11.3127 8.01093C11.4823 8.15497 11.6822 8.26592 11.9 8.33704C12.1179 8.40815 12.3492 8.43796 12.58 8.42465C12.9458 8.43316 13.3044 8.33116 13.6007 8.13437C13.842 7.99076 14.0247 7.77749 14.12 7.52937H15.8433C15.6597 8.23688 15.2116 8.86308 14.5767 9.29914C13.9672 9.66993 13.2471 9.85784 12.516 9.83694C11.9942 9.84318 11.4764 9.75316 10.9933 9.5723C10.5562 9.40538 10.1641 9.15275 9.84467 8.83228C9.52655 8.49652 9.28208 8.10768 9.12467 7.68704C8.9482 7.21672 8.86182 6.72196 8.86933 6.22466C8.866 5.73576 8.95533 5.24993 9.13333 4.78916C9.37341 4.14122 9.83067 3.57938 10.4398 3.18386C11.049 2.78833 11.7789 2.57933 12.5253 2.58671C13.0766 2.57622 13.6218 2.69464 14.1093 2.93076C14.55 3.15199 14.93 3.46243 15.2213 3.83826C15.519 4.2324 15.7323 4.67472 15.85 5.14176C15.9793 5.64349 16.0253 6.15987 15.9867 6.67443H10.854C10.812 7.15721 10.9767 7.63632 11.3127 8.01093ZM4.63133 0.162429C5.06353 0.155254 5.49509 0.19588 5.91667 0.283429C6.2718 0.354353 6.60892 0.486679 6.91 0.673321C7.18867 0.858488 7.40867 1.10782 7.54867 1.39565C7.70933 1.74949 7.78667 2.13082 7.776 2.51399C7.79461 2.93517 7.67727 3.35202 7.43867 3.71237C7.1881 4.05253 6.84189 4.32429 6.43667 4.49887C6.98683 4.63472 7.46603 4.94613 7.788 5.37704C8.09733 5.83354 8.25267 6.36399 8.23467 6.90116C8.24526 7.32938 8.1488 7.75415 7.95267 8.14293C7.77163 8.4825 7.50604 8.77829 7.17733 9.00644C6.8395 9.23249 6.45917 9.39969 6.05533 9.49961C5.63678 9.60585 5.20432 9.65911 4.77 9.65792H0V0.162429H4.63133ZM4.47467 8.04576C4.68 8.04821 4.88533 8.02804 5.08533 7.98526C5.26822 7.94842 5.44163 7.87953 5.596 7.78237C5.748 7.68582 5.87 7.55566 5.952 7.40409C6.04667 7.21037 6.09067 6.99893 6.07933 6.78749C6.09996 6.59444 6.07211 6.39962 5.99793 6.21796C5.92374 6.0363 5.80518 5.87261 5.65133 5.73943C5.32495 5.51938 4.92521 5.41027 4.52067 5.43082H2.16067V8.04576H4.47467ZM13.5647 4.39926C13.4211 4.26759 13.2483 4.16568 13.0581 4.10044C12.8679 4.03518 12.6646 4.00808 12.462 4.02099C12.193 4.01143 11.9258 4.06596 11.6867 4.17926C11.4972 4.27477 11.33 4.40351 11.1947 4.55816C11.0741 4.70277 10.9845 4.86699 10.9307 5.04216C10.8813 5.18821 10.8507 5.33854 10.8393 5.49071H14.0187C13.9908 5.09365 13.8331 4.71352 13.566 4.39987L13.5647 4.39926ZM4.356 4.00326C4.69578 4.016 5.03022 3.92271 5.30467 3.73865C5.57067 3.52171 5.70933 3.20087 5.678 2.87515C5.68664 2.68756 5.64594 2.50081 5.55933 2.33065C5.48545 2.19546 5.37095 2.08245 5.22933 2.00493C5.08571 1.91958 4.92429 1.86256 4.75533 1.83749C4.57202 1.80463 4.38542 1.78967 4.19867 1.79287H2.16067V4.01182H4.356V4.00326ZM14.4133 0.79676H10.4293V1.72993H14.4133V0.79676Z" fill="#22262F"/>
</svg>
