<svg width="21" height="20" viewBox="0 0 21 20" fill="none" xmlns="http://www.w3.org/2000/svg">
<g clip-path="url(#clip0_1969_6001)">
<path d="M15.4502 14.9499C14.0257 16.0358 12.2911 16.6373 10.5002 16.6666C4.66683 16.6666 1.3335 9.99994 1.3335 9.99994C2.37007 8.06819 3.80778 6.38045 5.55016 5.04994M8.75016 3.53327C9.32377 3.39901 9.91105 3.33189 10.5002 3.33327C16.3335 3.33327 19.6668 9.99994 19.6668 9.99994C19.161 10.9463 18.5577 11.8372 17.8668 12.6583M12.2668 11.7666C12.038 12.0122 11.762 12.2092 11.4553 12.3459C11.1486 12.4825 10.8176 12.556 10.4819 12.5619C10.1462 12.5678 9.8128 12.5061 9.5015 12.3803C9.19021 12.2546 8.90743 12.0675 8.67004 11.8301C8.43264 11.5927 8.24549 11.3099 8.11975 10.9986C7.99402 10.6873 7.93227 10.3539 7.93819 10.0182C7.94411 9.68252 8.01759 9.35148 8.15423 9.04481C8.29087 8.73815 8.48787 8.46215 8.7335 8.23327" stroke="#6C6F80" stroke-linecap="round" stroke-linejoin="round"/>
<path d="M1.3335 0.833252L19.6668 19.1666" stroke="#6C6F80" stroke-linecap="round" stroke-linejoin="round"/>
</g>
<defs>
<clipPath id="clip0_1969_6001">
<rect width="20" height="20" fill="white" transform="translate(0.5)"/>
</clipPath>
</defs>
</svg>
