<svg width="12" height="16" viewBox="0 0 12 16" fill="none" xmlns="http://www.w3.org/2000/svg">
<path d="M8.56799 5.98733H5.50932V0H8.56799C10.2187 0 11.5613 1.34267 11.5613 2.99333C11.5613 4.644 10.2187 5.98733 8.56799 5.98733ZM6.48999 5.00667H8.56799C9.67799 5.00667 10.5807 4.10333 10.5807 2.994C10.5807 1.88467 9.67732 0.981333 8.56799 0.981333H6.48999V5.00667ZM6.48999 5.98733H3.43199C1.78132 5.98733 0.438655 4.64467 0.438655 2.994C0.438655 1.34333 1.78132 0 3.43199 0H6.49066V5.98733H6.48999ZM3.43199 0.980667C2.32199 0.980667 1.41932 1.884 1.41932 2.99333C1.41932 4.10267 2.32199 5.00667 3.43199 5.00667H5.50999V0.980667H3.43199ZM6.48999 10.9933H3.43199C1.78132 10.9933 0.438655 9.65067 0.438655 8C0.438655 6.34933 1.78132 5.00667 3.43199 5.00667H6.49066V10.9933H6.48999ZM3.43199 5.98733C2.32199 5.98733 1.41932 6.89067 1.41932 8C1.41932 9.10933 2.32265 10.0127 3.43199 10.0127H5.50999V5.98733H3.43199ZM3.44799 16C1.78865 16 0.437988 14.6573 0.437988 13.0067C0.437988 11.356 1.78066 10.0133 3.43132 10.0133H6.48999V12.974C6.48999 14.6427 5.12532 16 3.44799 16ZM3.43199 10.9933C2.89841 10.994 2.38689 11.2063 2.0096 11.5836C1.6323 11.9609 1.42003 12.4724 1.41932 13.006C1.41932 14.116 2.32932 15.0187 3.44866 15.0187C4.58532 15.0187 5.51065 14.1013 5.51065 12.9733V10.9933H3.43199ZM8.56799 10.9933H8.50266C6.85199 10.9933 5.50932 9.65067 5.50932 8C5.50932 6.34933 6.85199 5.00667 8.50266 5.00667H8.56799C10.2187 5.00667 11.5613 6.34933 11.5613 8C11.5613 9.65067 10.2187 10.9933 8.56799 10.9933ZM8.50332 5.98733C7.39332 5.98733 6.49066 6.89067 6.49066 8C6.49066 9.10933 7.39399 10.0127 8.50332 10.0127H8.56866C9.67865 10.0127 10.5813 9.10933 10.5813 8C10.5813 6.89067 9.67732 5.98733 8.56799 5.98733H8.50332Z" fill="currentColor"/>
</svg>
