<svg width="14" height="14" viewBox="0 0 14 14" fill="none" xmlns="http://www.w3.org/2000/svg">
<g clip-path="url(#clip0_2090_4064)">
<path d="M2.82199 4.29801C3.62759 4.29801 4.28066 3.64494 4.28066 2.83934C4.28066 2.03374 3.62759 1.38068 2.82199 1.38068C2.01639 1.38068 1.36333 2.03374 1.36333 2.83934C1.36333 3.64494 2.01639 4.29801 2.82199 4.29801Z" fill="#22262F"/>
<path d="M5.65799 5.40337V13.496H8.17066V9.49404C8.17066 8.43804 8.36933 7.41537 9.67866 7.41537C10.97 7.41537 10.986 8.62271 10.986 9.56071V13.4967H13.5V9.05871C13.5 6.87871 13.0307 5.20337 10.4827 5.20337C9.25933 5.20337 8.43933 5.87471 8.10399 6.51004H8.06999V5.40337H5.65799ZM1.56333 5.40337H4.07999V13.496H1.56333V5.40337Z" fill="#22262F"/>
</g>
<defs>
<clipPath id="clip0_2090_4064">
<rect width="13" height="13" fill="white" transform="translate(0.5 0.5)"/>
</clipPath>
</defs>
</svg>
