<svg width="51" height="44" viewBox="0 0 51 44" fill="none" xmlns="http://www.w3.org/2000/svg">
<path d="M14.2799 0V10.5771C18.7139 10.3606 23.5718 11.9952 28.1715 16.3359C30.5367 12.0688 32.0572 6.87495 32.0572 1.07129H36.0572C36.0572 8.08489 34.0775 14.3546 31.0104 19.4131C35.0967 24.449 38.8692 31.8938 41.9254 42.4434L38.0836 43.5566C35.3105 33.9844 32.0073 27.334 28.6197 22.8467C26.9757 24.9124 25.1456 26.6947 23.2125 28.1416C20.416 30.2348 17.3458 31.675 14.2799 32.2275V42.5977H10.2799V32.4209C7.05872 32.1274 4.06433 30.6933 1.7379 27.9531L1.48008 27.6406L1.46348 27.6201L1.44786 27.5996C-1.05297 24.3075 -0.00702596 20.0645 2.2584 16.9717C4.07023 14.4983 6.88403 12.3652 10.2799 11.2939V0H14.2799ZM10.2799 15.5605C8.26539 16.44 6.60052 17.8135 5.48594 19.335C3.72957 21.7326 3.67445 23.8918 4.61583 25.1572C6.16916 27.0849 8.11524 28.1169 10.2799 28.3984V15.5605ZM25.7799 19.584C21.6921 15.5683 17.6618 14.3637 14.2799 14.584V28.1396C16.4065 27.6335 18.6461 26.5619 20.815 24.9385C22.6539 23.5621 24.4029 21.8158 25.9527 19.7578C25.8948 19.6998 25.8378 19.6409 25.7799 19.584Z" fill="#687BE0"/>
<path d="M47.368 42.21C46.6167 42.21 45.975 42.0396 45.443 41.699C44.911 41.3583 44.5027 40.887 44.218 40.285C43.9333 39.683 43.791 38.9923 43.791 38.213C43.791 37.4196 43.9357 36.7243 44.225 36.127C44.5143 35.5296 44.925 35.0653 45.457 34.734C45.9937 34.398 46.6307 34.23 47.368 34.23C48.124 34.23 48.768 34.4003 49.3 34.741C49.8367 35.077 50.245 35.546 50.525 36.148C50.8097 36.7453 50.952 37.4336 50.952 38.213C50.952 39.0063 50.8097 39.704 50.525 40.306C50.2403 40.9033 49.8297 41.37 49.293 41.706C48.7563 42.042 48.1147 42.21 47.368 42.21ZM47.368 41.223C48.208 41.223 48.8334 40.9453 49.244 40.39C49.6547 39.83 49.86 39.1043 49.86 38.213C49.86 37.2983 49.6523 36.5703 49.237 36.029C48.8264 35.4876 48.2034 35.217 47.368 35.217C46.8034 35.217 46.3367 35.3453 45.968 35.602C45.604 35.854 45.331 36.2063 45.149 36.659C44.9717 37.107 44.883 37.625 44.883 38.213C44.883 39.123 45.093 39.8533 45.513 40.404C45.933 40.95 46.5514 41.223 47.368 41.223Z" fill="black"/>
<path d="M42.9951 42.0001C42.5704 42.0888 42.1504 42.1238 41.7351 42.1051C41.3244 42.0864 40.9557 41.9978 40.6291 41.8391C40.3071 41.6804 40.0621 41.4331 39.8941 41.0971C39.7587 40.8171 39.6841 40.5348 39.6701 40.2501C39.6607 39.9608 39.6561 39.6318 39.6561 39.2631V32.3401H40.6781V39.2211C40.6781 39.5384 40.6804 39.8044 40.6851 40.0191C40.6944 40.2291 40.7434 40.4158 40.8321 40.5791C41.0001 40.8918 41.2661 41.0784 41.6301 41.1391C41.9987 41.1998 42.4537 41.1858 42.9951 41.0971V42.0001ZM38.0391 35.3221V34.4401H42.9951V35.3221H38.0391Z" fill="black"/>
<path d="M31.9268 41.9999L31.9338 31.9199H32.9698V38.0799L36.3438 34.4399H37.7158L34.1738 38.2199L38.1778 41.9999H36.6798L32.9698 38.3599V41.9999H31.9268Z" fill="black"/>
<path d="M26.9432 42.21C26.2059 42.21 25.5666 42.0466 25.0252 41.72C24.4886 41.3933 24.0709 40.9336 23.7722 40.341C23.4736 39.7483 23.3242 39.053 23.3242 38.255C23.3242 37.429 23.4712 36.715 23.7652 36.113C24.0592 35.511 24.4722 35.0466 25.0042 34.72C25.5409 34.3933 26.1732 34.23 26.9012 34.23C27.6479 34.23 28.2849 34.4026 28.8122 34.748C29.3396 35.0886 29.7386 35.5786 30.0092 36.218C30.2799 36.8573 30.4036 37.6203 30.3802 38.507H29.3302V38.143C29.3116 37.163 29.0992 36.4233 28.6932 35.924C28.2919 35.4246 27.7039 35.175 26.9292 35.175C26.1172 35.175 25.4942 35.4386 25.0602 35.966C24.6309 36.4933 24.4162 37.2446 24.4162 38.22C24.4162 39.172 24.6309 39.9116 25.0602 40.439C25.4942 40.9616 26.1079 41.223 26.9012 41.223C27.4426 41.223 27.9139 41.0993 28.3152 40.852C28.7212 40.6 29.0409 40.2383 29.2742 39.767L30.2332 40.138C29.9346 40.796 29.4936 41.307 28.9102 41.671C28.3316 42.0303 27.6759 42.21 26.9432 42.21ZM24.0522 38.507V37.646H29.8272V38.507H24.0522Z" fill="black"/>
<path d="M20.9328 42V38.143C20.9328 37.723 20.8932 37.338 20.8138 36.988C20.7345 36.6333 20.6062 36.3253 20.4288 36.064C20.2562 35.798 20.0298 35.5926 19.7498 35.448C19.4745 35.3033 19.1385 35.231 18.7418 35.231C18.3778 35.231 18.0558 35.294 17.7758 35.42C17.5005 35.546 17.2672 35.728 17.0758 35.966C16.8892 36.1993 16.7468 36.484 16.6488 36.82C16.5508 37.156 16.5018 37.5386 16.5018 37.968L15.7738 37.807C15.7738 37.0323 15.9092 36.3813 16.1798 35.854C16.4505 35.3266 16.8238 34.9276 17.2998 34.657C17.7758 34.3863 18.3218 34.251 18.9378 34.251C19.3905 34.251 19.7848 34.321 20.1208 34.461C20.4615 34.601 20.7485 34.79 20.9818 35.028C21.2198 35.266 21.4112 35.539 21.5558 35.847C21.7005 36.1503 21.8055 36.4746 21.8708 36.82C21.9362 37.1606 21.9688 37.5013 21.9688 37.842V42H20.9328ZM15.4658 42V34.44H16.3968V36.302H16.5018V42H15.4658Z" fill="black"/>
</svg>
