<svg width="14" height="14" viewBox="0 0 14 14" fill="none" xmlns="http://www.w3.org/2000/svg">
<path d="M7 0.25C5.66498 0.25 4.35994 0.645881 3.2499 1.38758C2.13987 2.12928 1.27471 3.18349 0.763816 4.41689C0.252925 5.65029 0.119252 7.00749 0.379702 8.31686C0.640153 9.62623 1.28303 10.829 2.22703 11.773C3.17104 12.717 4.37377 13.3599 5.68314 13.6203C6.99251 13.8808 8.34971 13.7471 9.58312 13.2362C10.8165 12.7253 11.8707 11.8601 12.6124 10.7501C13.3541 9.64007 13.75 8.33502 13.75 7C13.748 5.2104 13.0362 3.49466 11.7708 2.22922C10.5053 0.963781 8.7896 0.251985 7 0.25ZM12.1956 6.25H12.0006C11.1287 6.25051 10.2601 6.3567 9.41375 6.56625C9.23022 6.05705 9.00834 5.56251 8.75 5.08687C9.50304 4.60858 10.1937 4.03859 10.8063 3.39C11.5548 4.17613 12.0404 5.17563 12.1956 6.25ZM9.625 2.45625C9.11795 2.97655 8.55158 3.43552 7.9375 3.82375C7.38733 3.08451 6.74505 2.4185 6.02625 1.84188C7.26068 1.60683 8.53847 1.82497 9.625 2.45625ZM4.34625 2.47312C5.20156 3.0305 5.95956 3.72453 6.59 4.5275C5.45358 5.00561 4.23291 5.25127 3 5.25C2.6875 5.25 2.375 5.23375 2.06625 5.20312C2.48753 4.05694 3.29365 3.0922 4.34625 2.47312ZM1.75 7C1.75 6.89187 1.75438 6.785 1.76063 6.67875C2.17207 6.72592 2.58586 6.74971 3 6.75C4.52668 6.75128 6.03608 6.42698 7.4275 5.79875C7.64341 6.19379 7.82976 6.60429 7.985 7.02687C7.52196 7.21266 7.07253 7.43069 6.64 7.67937C5.32091 8.44097 4.17761 9.47266 3.285 10.7069C2.79799 10.2203 2.41173 9.64238 2.14834 9.00631C1.88494 8.37023 1.74958 7.68845 1.75 7ZM4.48563 11.6075C5.25624 10.5353 6.24604 9.63923 7.38938 8.97875C7.71236 8.79324 8.04631 8.62752 8.38938 8.4825C8.50024 9.05924 8.55611 9.6452 8.55625 10.2325C8.55675 10.8482 8.49603 11.4625 8.375 12.0662C7.06819 12.4218 5.67384 12.2574 4.48563 11.6075ZM10.0038 11.3019C10.0388 10.9469 10.0575 10.5894 10.0575 10.2306C10.0571 9.48416 9.97916 8.73975 9.825 8.00937C10.5373 7.83757 11.2673 7.75051 12 7.75H12.1944C12.0912 8.46027 11.8436 9.14186 11.4668 9.75274C11.09 10.3636 10.5921 10.8908 10.0038 11.3019Z" fill="#22262F"/>
</svg>
