<svg width="77" height="110" viewBox="0 0 77 110" fill="none" xmlns="http://www.w3.org/2000/svg">
<g clip-path="url(#clip0_332_637)">
<path d="M18.8995 29.2966C18.8995 24.0245 20.9646 18.9684 24.6404 15.2405C28.3162 11.5126 33.3017 9.41832 38.5 9.41832C43.6984 9.41832 48.6839 11.5126 52.3597 15.2405C56.0355 18.9684 58.1005 24.0245 58.1005 29.2966V52.2996H67.3818V29.2966C67.4563 25.4022 66.7643 21.5319 65.3463 17.912C63.9284 14.292 61.8128 10.9953 59.1235 8.21442C56.4342 5.43358 53.2251 3.22454 49.684 1.71652C46.1428 0.208492 42.3407 -0.568237 38.5 -0.568237C34.6594 -0.568237 30.8572 0.208492 27.3161 1.71652C23.7749 3.22454 20.5658 5.43358 17.8765 8.21442C15.1872 10.9953 13.0717 14.292 11.6537 17.912C10.2357 21.5319 9.54374 25.4022 9.61823 29.2966V52.2996H18.8995V29.2966Z" fill="#BBBBBB"/>
<path d="M33.0606 7.06513C32.6157 7.06727 32.1856 6.90259 31.8531 6.60273C31.5207 6.30287 31.3092 5.88899 31.2593 5.44059C31.2094 4.9922 31.3247 4.54093 31.5829 4.17348C31.8412 3.80604 32.2242 3.54834 32.6585 3.44991L34.0061 3.17435C34.2417 3.12766 34.484 3.12911 34.719 3.17862C34.954 3.22812 35.1769 3.32469 35.3747 3.46265C35.5724 3.60062 35.741 3.77722 35.8706 3.9821C36.0002 4.18699 36.0882 4.41604 36.1294 4.65584C36.1706 4.89565 36.1643 5.14139 36.1107 5.37866C36.0571 5.61593 35.9573 5.83997 35.8173 6.03765C35.6772 6.23533 35.4997 6.40269 35.295 6.52991C35.0904 6.65714 34.8628 6.74167 34.6256 6.77856C34.2343 6.8447 33.8539 6.93287 33.4627 7.02105C33.331 7.05262 33.1959 7.06742 33.0606 7.06513Z" fill="white"/>
<path d="M15.4979 23.1132C15.2971 23.1142 15.098 23.0768 14.911 23.003C14.4644 22.8386 14.0997 22.5022 13.8962 22.0667C13.6928 21.6313 13.6669 21.1321 13.8242 20.6774C15.8696 14.6544 19.9761 9.57464 25.3986 6.35973C25.8122 6.11564 26.3045 6.04819 26.7672 6.17221C27.2299 6.29623 27.625 6.60157 27.8657 7.02106C28.1064 7.44054 28.1729 7.93981 28.0506 8.40902C27.9283 8.87824 27.6272 9.27897 27.2136 9.52306C22.5362 12.28 18.9858 16.6431 17.2041 21.8237C17.0913 22.1943 16.8651 22.519 16.5584 22.7508C16.2517 22.9825 15.8803 23.1095 15.4979 23.1132Z" fill="white"/>
<path d="M69.4467 45.1573H7.55329C6.71185 45.1851 5.89426 45.4478 5.19054 45.9164C4.48681 46.3851 3.92422 47.0416 3.56471 47.8137C1.22195 54.3158 0.0156293 61.1826 0 68.1052C0 92.3537 17.2367 110.044 38.4946 110.044C59.7524 110.044 77 92.3317 77 68.1052C76.9784 61.1832 75.7723 54.3174 73.4353 47.8137C73.0758 47.0416 72.5132 46.3851 71.8095 45.9164C71.1057 45.4478 70.2882 45.1851 69.4467 45.1573Z" fill="#B9DDF6"/>
<path d="M69.4468 45.1573H38.4946V110.044C59.7634 110.044 77 92.3317 77 68.1052C76.9785 61.1832 75.7723 54.3174 73.4353 47.8137C73.0758 47.0416 72.5132 46.3851 71.8095 45.9164C71.1058 45.4478 70.2882 45.1851 69.4468 45.1573Z" fill="#9ACCEE"/>
<path d="M38.4946 91.3618C37.7966 91.346 37.1085 91.191 36.4697 90.9055C35.8308 90.62 35.2537 90.2096 34.7713 89.6978C34.2889 89.186 33.9106 88.5829 33.6581 87.9228C33.4056 87.2627 33.2838 86.5586 33.2996 85.8507V77.2756C31.5503 76.137 30.2117 74.4543 29.4844 72.4794C28.757 70.5046 28.6801 68.3439 29.2651 66.321C29.8501 64.2982 31.0655 62.5219 32.7294 61.2583C34.3932 59.9947 36.4159 59.3118 38.4946 59.3118C40.5732 59.3118 42.5959 59.9947 44.2597 61.2583C45.9236 62.5219 47.139 64.2982 47.724 66.321C48.309 68.3439 48.2321 70.5046 47.5047 72.4794C46.7774 74.4543 45.4389 76.137 43.6895 77.2756V85.9389C43.7012 87.3542 43.1625 88.7171 42.19 89.7322C41.2176 90.7473 39.8898 91.3328 38.4946 91.3618ZM38.4946 62.0542C36.9417 62.039 35.4291 62.5546 34.2006 63.5178C32.972 64.4811 32.099 65.8358 31.7224 67.3637C31.3457 68.8915 31.4874 70.5035 32.1245 71.9398C32.7616 73.376 33.857 74.5529 35.2342 75.2806L35.9623 75.6664V85.9389C35.9299 86.2902 35.9702 86.6445 36.0805 86.9791C36.1908 87.3137 36.3688 87.6213 36.6031 87.8821C36.8373 88.1429 37.1227 88.3513 37.4409 88.4939C37.7591 88.6365 38.1032 88.7101 38.4511 88.7101C38.799 88.7101 39.143 88.6365 39.4612 88.4939C39.7795 88.3513 40.0648 88.1429 40.2991 87.8821C40.5334 87.6213 40.7113 87.3137 40.8217 86.9791C40.932 86.6445 40.9723 86.2902 40.9399 85.9389V75.6554L41.668 75.2696C43.0452 74.5419 44.1406 73.365 44.7777 71.9288C45.4148 70.4925 45.5564 68.8805 45.1798 67.3526C44.8032 65.8248 43.9302 64.47 42.7016 63.5068C41.473 62.5436 39.9604 62.028 38.4076 62.0431L38.4946 62.0542Z" fill="#5AA9FF"/>
<path d="M42.3418 76.4819V85.9388C42.3695 86.4679 42.2908 86.9972 42.1102 87.4944C41.9297 87.9917 41.6512 88.4464 41.2917 88.8308C40.9323 89.2153 40.4993 89.5215 40.0194 89.7308C39.5394 89.94 39.0224 90.048 38.5 90.048C37.9775 90.048 37.4605 89.94 36.9806 89.7308C36.5006 89.5215 36.0676 89.2153 35.7082 88.8308C35.3487 88.4464 35.0702 87.9917 34.8897 87.4944C34.7091 86.9972 34.6304 86.4679 34.6581 85.9388V76.4819C33.0204 75.6107 31.7179 74.208 30.9586 72.4978C30.1993 70.7876 30.0271 68.8687 30.4695 67.0476C30.9118 65.2266 31.9433 63.6084 33.399 62.4516C34.8547 61.2949 36.6506 60.6663 38.5 60.6663C40.3493 60.6663 42.1453 61.2949 43.601 62.4516C45.0566 63.6084 46.0881 65.2266 46.5304 67.0476C46.9728 68.8687 46.8006 70.7876 46.0413 72.4978C45.282 74.208 43.9795 75.6107 42.3418 76.4819Z" fill="black"/>
<path d="M14.8132 52.8727C15.5977 52.8727 16.3647 53.1086 17.017 53.5507C17.6693 53.9928 18.1778 54.6211 18.478 55.3562C18.7783 56.0913 18.8568 56.9002 18.7038 57.6806C18.5507 58.461 18.1729 59.1778 17.6181 59.7405C17.0633 60.3031 16.3565 60.6863 15.587 60.8415C14.8175 60.9967 14.02 60.917 13.2951 60.6126C12.5703 60.3081 11.9507 59.7924 11.5149 59.1308C11.079 58.4692 10.8463 57.6914 10.8463 56.8957C10.8449 56.367 10.9465 55.8432 11.1454 55.3545C11.3442 54.8657 11.6363 54.4216 12.005 54.0478C12.3736 53.6739 12.8115 53.3776 13.2934 53.176C13.7754 52.9743 14.2918 52.8712 14.8132 52.8727Z" fill="#5AA9FF"/>
<path d="M14.8131 54.1183C15.3626 54.1139 15.901 54.2753 16.3598 54.5819C16.8186 54.8886 17.1772 55.3267 17.39 55.8405C17.6028 56.3543 17.6601 56.9207 17.5548 57.4676C17.4494 58.0146 17.1861 58.5174 16.7983 58.9123C16.4105 59.3071 15.9158 59.5761 15.3769 59.6851C14.838 59.7941 14.2793 59.7382 13.7718 59.5244C13.2643 59.3107 12.831 58.9487 12.5268 58.4846C12.2226 58.0205 12.0614 57.4751 12.0635 56.9179C12.0635 56.1773 12.3528 55.4668 12.8682 54.9421C13.3835 54.4174 14.0829 54.1212 14.8131 54.1183Z" fill="#828282"/>
<path d="M12.8569 58.9128L16.7694 54.9449C16.5185 54.6586 16.2126 54.4273 15.8704 54.2653C15.5282 54.1032 15.1569 54.0138 14.7794 54.0026C14.4019 53.9913 14.0261 54.0584 13.6751 54.1997C13.3241 54.3411 13.0053 54.5537 12.7382 54.8246C12.4712 55.0954 12.2615 55.4187 12.1221 55.7747C11.9828 56.1307 11.9166 56.5118 11.9277 56.8947C11.9388 57.2775 12.027 57.654 12.1868 58.0011C12.3466 58.3481 12.5746 58.6584 12.8569 58.9128Z" fill="#CCCCCC"/>
<path d="M14.8132 55.3196C15.127 55.3196 15.4338 55.414 15.6947 55.5908C15.9556 55.7676 16.159 56.0189 16.2791 56.313C16.3992 56.607 16.4306 56.9306 16.3694 57.2427C16.3082 57.5549 16.1571 57.8416 15.9352 58.0667C15.7132 58.2917 15.4305 58.445 15.1227 58.5071C14.8149 58.5692 14.4959 58.5373 14.2059 58.4155C13.916 58.2937 13.6682 58.0875 13.4938 57.8228C13.3195 57.5582 13.2264 57.2471 13.2264 56.9288C13.2264 56.502 13.3936 56.0927 13.6912 55.7909C13.9887 55.4891 14.3923 55.3196 14.8132 55.3196Z" fill="white"/>
<path d="M54.9705 88.1433C55.7551 88.1433 56.522 88.3793 57.1744 88.8213C57.8267 89.2634 58.3352 89.8917 58.6354 90.6268C58.9356 91.3619 59.0142 92.1708 58.8611 92.9512C58.7081 93.7316 58.3303 94.4484 57.7755 95.0111C57.2207 95.5737 56.5139 95.9569 55.7444 96.1121C54.9749 96.2673 54.1773 96.1877 53.4525 95.8832C52.7276 95.5787 52.1081 95.063 51.6722 94.4014C51.2363 93.7399 51.0037 92.962 51.0037 92.1664C51.0065 91.1003 51.4254 90.0787 52.1687 89.3248C52.912 88.571 53.9193 88.1462 54.9705 88.1433Z" fill="#5AA9FF"/>
<path d="M54.9705 89.3557C55.5186 89.3557 56.0544 89.5206 56.5101 89.8294C56.9659 90.1382 57.3211 90.5772 57.5309 91.0908C57.7406 91.6044 57.7955 92.1695 57.6886 92.7147C57.5816 93.2599 57.3177 93.7607 56.9301 94.1538C56.5425 94.5468 56.0487 94.8145 55.5111 94.923C54.9735 95.0314 54.4163 94.9758 53.9099 94.763C53.4035 94.5503 52.9707 94.1901 52.6662 93.7279C52.3617 93.2657 52.1991 92.7222 52.1991 92.1664C52.1977 91.7969 52.2684 91.4307 52.4071 91.0891C52.5459 90.7474 52.75 90.437 53.0076 90.1757C53.2653 89.9144 53.5713 89.7074 53.9082 89.5667C54.2451 89.426 54.6061 89.3543 54.9705 89.3557Z" fill="#828282"/>
<path d="M53.0143 94.1503L56.9268 90.1824C56.3985 89.7062 55.7108 89.4528 55.0043 89.4739C54.2978 89.495 53.6259 89.789 53.1261 90.2959C52.6264 90.8027 52.3365 91.4841 52.3157 92.2006C52.2949 92.9171 52.5448 93.6145 53.0143 94.1503Z" fill="#CCCCCC"/>
<path d="M54.9705 90.5571C55.2844 90.5571 55.5911 90.6515 55.8521 90.8283C56.113 91.0052 56.3164 91.2565 56.4365 91.5505C56.5566 91.8446 56.588 92.1681 56.5268 92.4803C56.4656 92.7924 56.3144 93.0792 56.0925 93.3042C55.8706 93.5293 55.5879 93.6826 55.2801 93.7446C54.9723 93.8067 54.6533 93.7749 54.3633 93.6531C54.0734 93.5313 53.8256 93.325 53.6512 93.0604C53.4769 92.7957 53.3838 92.4846 53.3838 92.1663C53.3838 91.7396 53.551 91.3302 53.8486 91.0285C54.1461 90.7267 54.5497 90.5571 54.9705 90.5571Z" fill="white"/>
<path d="M22.0186 88.1433C22.8032 88.1433 23.5701 88.3793 24.2225 88.8213C24.8748 89.2634 25.3832 89.8917 25.6835 90.6268C25.9837 91.3619 26.0623 92.1708 25.9092 92.9512C25.7561 93.7316 25.3783 94.4485 24.8236 95.0111C24.2688 95.5737 23.562 95.9569 22.7925 96.1121C22.023 96.2673 21.2254 96.1877 20.5006 95.8832C19.7757 95.5787 19.1562 95.063 18.7203 94.4015C18.2844 93.7399 18.0518 92.9621 18.0518 92.1664C18.0503 91.6377 18.152 91.1139 18.3508 90.6251C18.5496 90.1363 18.8418 89.6923 19.2104 89.3184C19.5791 88.9445 20.0169 88.6483 20.4989 88.4466C20.9808 88.2449 21.4973 88.1419 22.0186 88.1433Z" fill="#5AA9FF"/>
<path d="M22.0187 89.3557C22.5672 89.3536 23.1041 89.5165 23.5613 89.824C24.0185 90.1315 24.3754 90.5697 24.5868 91.0831C24.7982 91.5965 24.8546 92.162 24.7489 92.7079C24.6432 93.2538 24.3802 93.7557 23.993 94.1498C23.6059 94.544 23.1121 94.8128 22.5742 94.9221C22.0363 95.0315 21.4785 94.9765 20.9715 94.7641C20.4645 94.5517 20.031 94.1914 19.726 93.729C19.421 93.2666 19.2582 92.7227 19.2582 92.1664C19.2582 91.4228 19.5487 90.7096 20.0661 90.1828C20.5834 89.6561 21.2855 89.3587 22.0187 89.3557Z" fill="#828282"/>
<path d="M24.0184 90.1823L20.1059 94.1503C19.8236 93.8958 19.5956 93.5856 19.4358 93.2385C19.276 92.8915 19.1878 92.5149 19.1767 92.1321C19.1656 91.7492 19.2318 91.3681 19.3712 91.0121C19.5105 90.6561 19.7202 90.3328 19.9872 90.062C20.2543 89.7911 20.5731 89.5785 20.9241 89.4372C21.2751 89.2958 21.6509 89.2287 22.0284 89.24C22.4059 89.2513 22.7772 89.3407 23.1194 89.5027C23.4616 89.6648 23.7675 89.896 24.0184 90.1823Z" fill="#CCCCCC"/>
<path d="M22.0295 90.5572C22.3429 90.5593 22.6486 90.6556 22.9081 90.8337C23.1676 91.0118 23.3693 91.2639 23.4877 91.5582C23.6061 91.8524 23.636 92.1756 23.5736 92.487C23.5111 92.7984 23.3591 93.0842 23.1368 93.3081C22.9145 93.5321 22.6317 93.6842 22.3242 93.7454C22.0167 93.8066 21.6982 93.7741 21.4089 93.652C21.1196 93.5299 20.8725 93.3236 20.6986 93.0593C20.5247 92.7949 20.4319 92.4842 20.4319 92.1664C20.4305 91.9537 20.4709 91.7429 20.5508 91.5462C20.6307 91.3496 20.7485 91.1711 20.8973 91.0213C21.046 90.8714 21.2228 90.7531 21.4172 90.6734C21.6117 90.5937 21.8198 90.5542 22.0295 90.5572Z" fill="white"/>
<path d="M62.1869 52.8727C62.9746 52.8705 63.7451 53.1055 64.4009 53.548C65.0567 53.9904 65.5682 54.6203 65.8706 55.3579C66.173 56.0955 66.2527 56.9075 66.0996 57.6911C65.9465 58.4746 65.5674 59.1944 65.0104 59.7593C64.4535 60.3241 63.7438 60.7085 62.9712 60.8638C62.1985 61.0191 61.3979 60.9383 60.6706 60.6316C59.9433 60.3249 59.3222 59.8062 58.8859 59.1411C58.4497 58.476 58.218 57.6945 58.2201 56.8957C58.223 55.8297 58.6418 54.8081 59.3851 54.0542C60.1284 53.3004 61.1357 52.8756 62.1869 52.8727Z" fill="#5AA9FF"/>
<path d="M62.176 54.1182C62.7246 54.116 63.2615 54.279 63.7186 54.5865C64.1758 54.894 64.5327 55.3322 64.7441 55.8456C64.9556 56.3589 65.012 56.9244 64.9063 57.4704C64.8006 58.0163 64.5375 58.5181 64.1504 58.9123C63.7632 59.3065 63.2694 59.5752 62.7315 59.6846C62.1936 59.7939 61.6359 59.7389 61.1288 59.5265C60.6218 59.3141 60.1883 58.9539 59.8833 58.4914C59.5783 58.029 59.4155 57.4852 59.4155 56.9288C59.4184 56.1862 59.7097 55.4746 60.2265 54.9485C60.7433 54.4223 61.4437 54.124 62.176 54.1182Z" fill="#828282"/>
<path d="M64.1431 54.9339L60.2306 58.9018C59.7611 58.366 59.5112 57.6685 59.532 56.952C59.5528 56.2355 59.8427 55.5542 60.3425 55.0473C60.8422 54.5405 61.5141 54.2464 62.2205 54.2253C62.927 54.2042 63.6148 54.4577 64.1431 54.9339Z" fill="#CCCCCC"/>
<path d="M62.1869 55.3086C62.5037 55.3065 62.8141 55.3999 63.0785 55.5771C63.3429 55.7543 63.5493 56.0072 63.6716 56.3037C63.7939 56.6002 63.8264 56.9269 63.7651 57.2422C63.7038 57.5576 63.5514 57.8473 63.3274 58.0745C63.1033 58.3018 62.8176 58.4563 62.5067 58.5185C62.1958 58.5806 61.8737 58.5476 61.5813 58.4236C61.289 58.2996 61.0396 58.0903 60.8648 57.8221C60.6901 57.554 60.598 57.2392 60.6001 56.9178C60.603 56.4919 60.7711 56.0843 61.068 55.7832C61.365 55.482 61.7669 55.3115 62.1869 55.3086Z" fill="white"/>
<path d="M5.41229 68.0612C5.44052 62.1224 6.41301 56.227 8.29231 50.6023H68.7077L72.6637 46.5902C71.8084 45.6856 70.6384 45.1556 69.4033 45.1133H7.5533C6.71185 45.141 5.89426 45.4037 5.19054 45.8724C4.48682 46.341 3.92422 46.9975 3.56471 47.7696C1.22195 54.2717 0.0156293 61.1385 0 68.0612C0 83.1834 6.71644 95.7706 16.9433 103.1L20.8232 99.1654C11.4332 92.8718 5.41229 81.5301 5.41229 68.0612Z" fill="#D9EFFF"/>
<path d="M77 68.0611C76.9784 61.1391 75.7723 54.2733 73.4353 47.7696C73.2585 47.328 72.9961 46.927 72.6637 46.5902L68.7077 50.6022C70.5853 56.2274 71.5578 62.1225 71.5877 68.0611C71.5877 88.8487 57.3615 104.522 38.4946 104.522C32.211 104.551 26.0605 102.686 20.8231 99.1654L16.9432 103.1C23.2474 107.612 30.779 110.023 38.4946 110C59.7633 110 77 92.2876 77 68.0611Z" fill="#5AA9FF"/>
<path d="M27.7679 85.9388V79.9208C26.3468 78.489 25.2231 76.7828 24.4634 74.903C23.7036 73.0232 23.3231 71.0081 23.3443 68.9766C23.3656 66.9452 23.7883 64.9387 24.5872 63.0757C25.3862 61.2127 26.5453 59.5311 27.9961 58.1302V55.1653H22.9316C23.0604 55.7406 23.1297 56.3279 23.1381 56.9178C23.1381 59.1989 22.2453 61.3868 20.6559 63.0008C19.0664 64.6149 16.9103 65.5231 14.661 65.526C12.985 65.5249 11.3485 65.01 9.96603 64.049C9.84649 65.4158 9.75954 66.7605 9.75954 68.0611C9.70326 74.7809 11.568 81.3734 15.1283 87.041C15.8387 86.0539 16.7509 85.234 17.8025 84.6373C18.8541 84.0407 20.0204 83.6814 21.2216 83.5841C22.4228 83.4868 23.6305 83.6537 24.7622 84.0734C25.8939 84.4931 26.9228 85.1557 27.7787 86.016L27.7679 85.9388Z" fill="#9ACCEE"/>
<path d="M49.2213 85.9388V79.9208C50.6417 78.4889 51.765 76.7831 52.5248 74.9038C53.2847 73.0246 53.6657 71.01 53.6455 68.979C53.6252 66.948 53.2041 64.9417 52.4069 63.0784C51.6097 61.2151 50.4526 59.5326 49.0039 58.1302V55.1653H54.0249C53.8961 55.7406 53.8269 56.3279 53.8185 56.9178C53.8242 59.1971 54.7188 61.3816 56.307 62.9944C57.8952 64.6072 60.048 65.5173 62.2955 65.526C63.9749 65.525 65.615 65.0103 67.0014 64.049C67.11 65.4158 67.197 66.7605 67.197 68.0611C67.263 74.7776 65.4096 81.3698 61.8608 87.041C61.1505 86.0539 60.2383 85.234 59.1866 84.6373C58.135 84.0407 56.9687 83.6814 55.7676 83.5841C54.5664 83.4868 53.3587 83.6537 52.227 84.0734C51.0953 84.4931 50.0663 85.1557 49.2104 86.016L49.2213 85.9388Z" fill="#7DB1DE"/>
</g>
<defs>
<clipPath id="clip0_332_637">
<rect width="77" height="110" fill="white"/>
</clipPath>
</defs>
</svg>
