<svg width="104" height="22" viewBox="0 0 104 22" fill="none" xmlns="http://www.w3.org/2000/svg">
<path d="M103.303 21.4193C103.079 21.7713 102.599 21.9633 102.183 21.8673C101.927 21.7393 101.639 21.5473 101.543 21.2273C101.255 20.3633 101.383 19.3073 101.959 18.6353C102.215 18.3473 102.631 18.1233 103.047 18.1873C103.463 18.2833 103.623 18.7313 103.687 19.0193C103.911 19.8193 103.623 20.7793 103.303 21.4193Z" fill="#21344A"/>
<path d="M97.2537 3.78711L95.9737 5.73911C94.6937 7.69111 93.3177 9.54711 92.1977 11.4351C91.1737 13.1631 90.2457 14.8591 89.4457 16.6511C88.7737 18.1871 88.2297 19.7871 87.9417 21.4831C87.8457 21.7071 87.3657 21.6431 87.1737 21.3231C86.9817 20.6831 87.0777 20.0431 87.2377 19.4671C87.4617 18.7631 87.7497 18.1231 87.9737 17.4511C88.4217 16.2031 88.9337 15.0831 89.5097 13.9951C90.0857 12.9391 90.7257 11.9151 91.3977 10.7951C90.0857 9.6111 87.9097 6.98711 87.1417 4.97111C86.6617 3.75511 86.4057 2.41111 86.4697 1.03511C86.5657 0.715105 86.5657 0.491106 86.8217 0.267105C87.1097 0.171107 87.2377 0.395106 87.3337 0.587105C87.3337 2.05911 87.6217 3.33911 88.1017 4.55511C88.8377 6.34711 90.8217 8.8111 91.9417 9.89911C92.8377 8.4591 94.0857 6.82711 94.9497 5.38711C95.7497 4.04311 96.6777 2.60311 97.2537 1.96311C97.5097 1.67511 97.8617 1.41911 98.2457 1.35511C98.4057 1.35511 98.5977 1.41911 98.7257 1.54711C98.8537 1.6431 98.9497 1.83511 98.7897 1.99511C98.1497 2.60311 97.6697 3.14711 97.2537 3.78711Z" fill="#21344A"/>
<path d="M77.0834 21.3553C75.6754 20.3313 75.2274 18.8913 74.6834 17.3553C74.4594 16.6833 74.2994 15.9793 74.1394 15.2753C73.2754 17.4513 72.1234 19.6913 70.1074 21.2913C69.4674 21.8033 68.4754 21.9953 67.7714 21.5473C66.9714 21.0673 66.6194 20.2993 66.4914 19.4353C66.3634 18.3473 66.5554 17.0993 66.8114 16.1713C67.4514 13.7393 68.7954 11.4993 70.8754 9.73933C71.1634 9.57933 71.4514 9.41933 71.7394 9.32333C72.0594 9.22733 72.3794 9.22733 72.6994 9.38733C73.4674 9.73933 74.0114 10.4113 74.2994 11.1793C74.6194 11.6273 74.6194 12.2993 74.6834 12.8433C74.8114 13.0673 74.8754 13.2593 74.9714 13.5473C75.0994 14.6993 75.3554 15.7233 75.6754 16.7793C76.2194 18.4753 76.5394 19.7873 77.8514 21.0673C77.8834 21.4833 77.3714 21.4193 77.0834 21.3553ZM73.4354 11.5313C73.1794 11.0833 72.8594 10.6673 72.4434 10.4433C72.1234 10.3473 71.8674 10.4433 71.6114 10.6033C70.6194 11.2753 69.7234 12.4913 69.1474 13.4833C68.4434 14.7633 67.9634 16.1393 67.6754 17.5793C67.6434 18.0593 67.5794 18.5713 67.6114 19.0513C67.6434 19.5313 67.7714 19.9473 68.0274 20.2993C68.3154 20.5873 68.8274 20.6513 69.2114 20.5233C71.4834 18.7633 72.7954 16.3313 73.6274 13.8353C73.6914 13.4833 73.7234 13.0993 73.9474 12.7793C73.8514 12.4593 73.6274 11.8833 73.4354 11.5313Z" fill="#21344A"/>
<path d="M64.6811 20.8751C64.3291 21.2591 63.8491 21.5791 63.3371 21.7071C62.9531 21.7391 62.2811 21.7071 61.9931 21.4511C61.4811 21.0031 61.2891 20.4591 61.1931 19.8191C60.8411 17.1951 60.9691 14.5711 61.1931 11.9471C60.7451 12.7791 60.2971 13.5471 59.8171 14.3471C59.2731 15.2431 58.6651 16.1071 57.8971 16.9391C57.7371 17.0671 57.4811 17.2271 57.2571 17.2591C57.1611 17.2591 57.0331 17.2271 56.9371 17.1631C56.8411 17.0991 56.8091 16.9711 56.9051 16.8431C57.8971 15.7231 58.6651 14.5071 59.3691 13.2591C60.0731 12.0111 60.6811 10.7631 61.4811 9.54712C61.6411 9.29112 62.1211 9.41912 62.3451 9.54712C62.5691 9.80312 62.5371 10.1231 62.5051 10.3791C62.0891 13.6111 61.7371 17.9311 62.3771 20.1071C62.4091 20.2991 62.7931 20.6511 62.9851 20.6511C63.3691 20.6831 63.6891 20.4591 64.0091 20.2031C64.3611 19.9151 64.6171 19.4991 64.8731 19.1471C65.0011 18.9231 65.0651 18.6671 65.1611 18.4431C65.2571 18.2191 65.3851 17.9631 65.6411 17.7391C65.8971 17.9631 65.8971 18.1871 65.8651 18.3791L65.7371 18.9551C65.6091 19.5951 65.1931 20.2991 64.6811 20.8751ZM64.7451 3.14712L64.1371 2.79512C62.8571 2.21912 61.5451 1.86712 60.1371 1.57912C59.8171 1.54712 59.7851 0.907124 60.1051 0.651123C62.0251 0.683123 63.7211 1.35512 65.1291 2.63512C65.3211 2.79512 65.5451 3.08312 65.4811 3.46712C65.1611 3.37112 64.9371 3.24312 64.7451 3.14712Z" fill="#21344A"/>
<path d="M57.5194 10.3793C56.5594 10.5713 55.8554 10.7633 54.8954 11.1793C53.9674 11.5633 53.1674 12.2673 52.3034 13.0993C51.4394 13.9313 50.7034 14.9233 50.2874 16.0753C50.3834 17.0353 50.6074 17.9313 50.8634 18.7953C51.1194 19.6913 51.4394 20.5553 51.6954 21.4833C51.5994 21.7713 51.2794 21.8673 51.0874 21.6753L50.7034 21.2593C49.9674 19.1793 49.1994 17.0993 48.9754 14.9233C48.8154 13.5793 48.9114 12.2033 49.2954 10.8273C49.4554 10.5393 49.5834 10.1873 49.7434 9.89933C49.9034 9.57933 50.1274 9.32333 50.5434 9.16333C50.7674 9.16333 51.0234 9.19533 51.2154 9.45133C51.2154 9.89933 50.8954 10.1553 50.7034 10.4753C50.6394 10.6033 50.5754 10.6673 50.5754 10.7953C50.1594 11.7233 50.0314 12.9073 50.0634 14.1873C50.6394 13.2593 51.4394 12.4913 52.1114 11.8833C52.6874 11.3713 53.8394 10.6993 54.5754 10.4113C55.3754 10.1233 55.7594 9.96333 56.5914 9.80333C56.9434 9.73933 57.4554 9.67533 57.8714 9.86733C57.9674 10.1873 57.7114 10.3793 57.5194 10.3793Z" fill="#21344A"/>
<path d="M47.3284 18.7312C46.8804 19.4032 46.3044 20.0112 45.6644 20.5232C44.8004 21.1952 43.8404 21.6752 42.8484 21.7712C41.7924 21.8672 40.7684 21.5152 40.0964 20.8112C39.7124 20.3952 39.4564 20.0432 39.2964 19.6912C39.1364 19.4032 39.0404 19.0832 38.9444 18.7632C38.6884 18.9552 38.3364 19.1472 38.1124 19.2112C37.7604 19.3072 37.4724 19.3072 37.0564 19.1152C36.9284 18.9872 36.8004 18.6992 36.9604 18.4432C37.1524 18.3472 37.3444 18.2832 37.5364 18.2512C37.7284 18.1872 37.8884 18.1552 38.0164 18.0912C38.2404 17.9952 38.5604 17.7712 38.8164 17.6432C38.7204 16.2032 38.7204 14.6672 39.0404 13.2272C39.2644 12.1072 39.7764 10.9872 40.5444 10.1232C41.2484 9.54721 42.5924 9.16321 43.4564 9.45121C44.5764 9.83521 45.4084 11.0192 45.8564 12.0432C45.9844 12.7152 45.6964 13.2592 45.3444 13.6752C45.0564 13.9952 44.7044 14.3472 44.3524 14.6672L43.8724 15.1152C43.7444 15.2432 43.5844 15.4032 43.4884 15.5312C42.9764 16.0112 42.3684 16.4912 41.7604 16.9392C41.1524 17.3872 40.5444 17.8032 40.0004 18.1552C40.1604 19.0512 40.4484 19.9472 41.2804 20.4272C42.0484 20.8752 42.8484 20.8112 43.5844 20.5232C44.2884 20.2672 44.9604 19.8512 45.4724 19.4032C46.4324 18.5712 47.2324 17.6432 47.6164 16.5552C47.7764 16.3952 48.0644 16.7152 48.0644 16.8432C48.0324 17.4512 47.6484 18.2192 47.3284 18.7312ZM43.4564 10.6352C42.8164 10.4112 41.7604 10.5392 41.2484 11.0192C40.7364 11.6912 40.4164 12.4592 40.1924 13.3232C39.8724 14.4432 39.8404 15.6592 39.9044 16.8752C40.5124 16.4592 41.1524 16.0112 41.7924 15.5312C42.4964 15.0192 43.1364 14.4432 43.6804 13.8672C44.0964 13.4512 44.7044 13.0032 44.8004 12.3632C44.5124 11.7232 44.0644 11.0512 43.4564 10.6352Z" fill="#21344A"/>
<path d="M35.5437 20.9713C34.8717 21.4513 34.1997 21.8033 33.2717 21.7713C32.1837 21.7393 31.1917 21.0353 30.4877 20.2033C30.0397 19.6593 29.7517 19.1473 29.5277 18.6033C29.3037 18.0913 29.1437 17.5793 28.9517 16.9713C28.0557 18.0273 26.9997 19.0513 25.8797 19.8193C25.6877 19.9473 25.3677 19.9793 25.1437 19.8193C24.9517 19.6913 24.9197 19.3713 25.0797 19.1793L26.9997 17.4193C27.6397 16.8433 28.2157 16.1713 28.6957 15.4993C28.4077 12.3953 28.3437 9.16332 29.0157 6.21932C29.4957 4.20332 30.3597 2.31532 31.7037 0.683323C32.0237 0.299322 32.7277 0.267323 33.0797 0.587322C33.7517 1.54732 33.8477 2.79532 33.8797 3.88332C33.9117 5.16332 33.7837 6.34732 33.5597 7.53132C32.9517 10.5713 31.5117 13.2913 29.8157 15.8833C30.0077 17.0033 30.3277 18.1873 30.9677 19.1473C31.4157 19.8513 32.0557 20.4273 32.8877 20.7153C33.7517 20.9073 34.3277 20.7153 35.0317 20.2993C35.6717 19.8833 36.4397 18.9233 36.8237 18.2193C36.8877 18.0273 37.0157 17.7713 37.2397 17.7713C37.4317 17.9633 37.4317 18.1233 37.3997 18.2833C37.3997 18.4113 37.3357 18.5393 37.3037 18.6673C36.9197 19.5313 36.3117 20.3953 35.5437 20.9713ZM32.1517 1.38732C31.0317 2.98732 30.3917 4.84332 30.0077 6.79532C29.5277 9.09932 29.5277 11.5633 29.6557 13.9633C30.9677 11.9153 32.0237 9.64332 32.5677 7.21132C32.9517 5.41932 33.0157 3.53132 32.6637 1.57932C32.5997 1.29132 32.2797 1.22732 32.1517 1.38732Z" fill="#21344A"/>
<path d="M24.4396 21.3553C23.0316 20.3313 22.5836 18.8913 22.0396 17.3553C21.8156 16.6833 21.6556 15.9793 21.4956 15.2753C20.6316 17.4513 19.4796 19.6913 17.4636 21.2913C16.8236 21.8033 15.8316 21.9953 15.1276 21.5473C14.3276 21.0673 13.9756 20.2993 13.8476 19.4353C13.7196 18.3473 13.9116 17.0993 14.1676 16.1713C14.8076 13.7393 16.1516 11.4993 18.2316 9.73933C18.5196 9.57933 18.8076 9.41933 19.0956 9.32333C19.4156 9.22733 19.7356 9.22733 20.0556 9.38733C20.8236 9.73933 21.3676 10.4113 21.6556 11.1793C21.9756 11.6273 21.9756 12.2993 22.0396 12.8433C22.1676 13.0673 22.2316 13.2593 22.3276 13.5473C22.4556 14.6993 22.7116 15.7233 23.0316 16.7793C23.5756 18.4753 23.8956 19.7873 25.2076 21.0673C25.2396 21.4833 24.7276 21.4193 24.4396 21.3553ZM20.7916 11.5313C20.5356 11.0833 20.2156 10.6673 19.7996 10.4433C19.4796 10.3473 19.2236 10.4433 18.9676 10.6033C17.9756 11.2753 17.0796 12.4913 16.5036 13.4833C15.7996 14.7633 15.3196 16.1393 15.0316 17.5793C14.9996 18.0593 14.9356 18.5713 14.9676 19.0513C14.9996 19.5313 15.1276 19.9473 15.3836 20.2993C15.6716 20.5873 16.1836 20.6513 16.5676 20.5233C18.8396 18.7633 20.1516 16.3313 20.9836 13.8353C21.0476 13.4833 21.0796 13.0993 21.3036 12.7793C21.2076 12.4593 20.9836 11.8833 20.7916 11.5313Z" fill="#21344A"/>
<path d="M11.8179 9.09921C10.8899 11.3712 8.96989 15.8832 8.10589 18.0912C7.88189 18.6352 7.72189 19.1792 7.49789 19.7552C7.30589 20.2992 7.04989 20.8432 6.69789 21.3552C6.34589 21.7712 5.76989 21.8032 5.28989 21.6752C4.77789 21.3872 4.48989 20.9392 4.23389 20.4592C4.00989 20.0112 3.81789 19.4992 3.59389 19.0512C2.76189 15.9792 2.31389 13.1632 1.70589 9.86721C1.25789 7.40321 0.841887 4.90721 0.489887 2.47521C0.393887 1.73921 0.233887 1.06721 0.233887 0.267212C0.393887 0.0752122 0.681887 0.0752122 0.841887 0.171213C1.09789 0.299211 1.22589 0.523212 1.32189 0.683212C1.44989 1.77121 1.76989 3.75521 1.89789 4.58721C2.28189 6.82721 3.01789 11.0512 3.40189 13.3232C3.78589 14.6672 3.94589 16.1072 4.29789 17.4832C4.55389 18.5712 4.90589 19.5952 5.54589 20.4912C5.67389 20.6832 5.86589 20.7152 5.92989 20.6832C6.05789 20.5872 6.15389 20.3312 6.18589 20.2032C6.66589 19.0192 7.40189 17.0032 7.91389 15.7552C8.87389 13.3872 10.9219 8.42721 12.0099 5.89921L12.2339 5.51521L12.4259 5.09921C12.5539 4.81121 12.7139 4.52321 12.9379 4.36321C13.0979 4.23521 13.3539 4.17121 13.5779 4.20321C13.7379 4.23521 13.8019 4.58721 13.7699 4.74721C13.1299 6.21921 12.2659 8.04321 11.8179 9.09921Z" fill="#21344A"/>
</svg>
