<svg width="58" height="12" viewBox="0 0 58 12" fill="none" xmlns="http://www.w3.org/2000/svg">
<path d="M56.7778 11.7396C56.6544 11.9335 56.3899 12.0393 56.1608 11.9864C56.0198 11.9159 55.8611 11.8102 55.8082 11.6339C55.6496 11.1579 55.7201 10.5762 56.0374 10.206C56.1784 10.0474 56.4076 9.92397 56.6367 9.95923C56.8659 10.0121 56.954 10.2589 56.9893 10.4176C57.1127 10.8582 56.954 11.3871 56.7778 11.7396Z" fill="#21344A"/>
<path d="M53.4453 2.02669L52.7402 3.10199C52.0351 4.17729 51.2771 5.1997 50.6601 6.23975C50.096 7.19165 49.5848 8.12593 49.1441 9.11309C48.7739 9.95923 48.4743 10.8406 48.3156 11.7749C48.2627 11.8983 47.9983 11.863 47.8925 11.6868C47.7868 11.3342 47.8397 10.9816 47.9278 10.6643C48.0512 10.2765 48.2098 9.92397 48.3332 9.55379C48.58 8.8663 48.8621 8.24932 49.1794 7.64998C49.4967 7.06826 49.8492 6.50416 50.2194 5.88719C49.4967 5.23496 48.298 3.78947 47.8749 2.67892C47.6105 2.00906 47.4695 1.26869 47.5047 0.51069C47.5576 0.334411 47.5576 0.211016 47.6986 0.0876209C47.8573 0.034738 47.9278 0.158132 47.9807 0.263899C47.9807 1.07478 48.1393 1.7799 48.4038 2.44976C48.8092 3.43692 49.9021 4.79426 50.5191 5.39361C51.0127 4.60035 51.7002 3.70133 52.1761 2.90808C52.6168 2.16771 53.128 1.37446 53.4453 1.0219C53.5863 0.863248 53.7803 0.722224 53.9918 0.686969C54.0799 0.686969 54.1857 0.722224 54.2562 0.792736C54.3267 0.845619 54.3796 0.951387 54.2915 1.03953C53.9389 1.37446 53.6745 1.67413 53.4453 2.02669Z" fill="#21344A"/>
<path d="M42.3342 11.7044C41.5586 11.1403 41.3118 10.347 41.0121 9.50091C40.8887 9.13072 40.8006 8.74291 40.7124 8.35509C40.2365 9.55379 39.6019 10.7877 38.4913 11.6691C38.1388 11.9512 37.5923 12.0569 37.2045 11.8102C36.7638 11.5457 36.5699 11.1227 36.4994 10.6467C36.4289 10.0474 36.5346 9.35988 36.6757 8.84867C37.0282 7.50896 37.7686 6.275 38.9144 5.30547C39.073 5.21733 39.2317 5.12919 39.3903 5.07631C39.5666 5.02343 39.7429 5.02343 39.9192 5.11157C40.3422 5.30547 40.6419 5.67566 40.8006 6.09873C40.9769 6.34552 40.9769 6.7157 41.0121 7.01537C41.0826 7.13877 41.1179 7.24454 41.1708 7.40319C41.2413 8.03779 41.3823 8.60188 41.5586 9.1836C41.8582 10.1179 42.0345 10.8406 42.7573 11.5457C42.7749 11.7749 42.4928 11.7396 42.3342 11.7044ZM40.3246 6.29263C40.1836 6.04584 40.0073 5.81668 39.7782 5.69328C39.6019 5.6404 39.4609 5.69328 39.3198 5.78142C38.7734 6.15161 38.2798 6.82147 37.9625 7.36793C37.5747 8.07305 37.3103 8.83105 37.1516 9.6243C37.134 9.88872 37.0987 10.1708 37.1163 10.4352C37.134 10.6996 37.2045 10.9288 37.3455 11.1227C37.5042 11.2813 37.7862 11.3166 37.9977 11.2461C39.2493 10.2765 39.9721 8.93681 40.4304 7.56184C40.4656 7.36793 40.4833 7.1564 40.6067 6.98012C40.5538 6.80384 40.4304 6.48654 40.3246 6.29263Z" fill="#21344A"/>
<path d="M35.5021 11.44C35.3082 11.6515 35.0438 11.8278 34.7618 11.8983C34.5502 11.9159 34.1801 11.8983 34.0214 11.7573C33.7394 11.5105 33.6336 11.2108 33.5807 10.8583C33.3868 9.41276 33.4573 7.96728 33.5807 6.52179C33.3339 6.98012 33.0871 7.40319 32.8227 7.84388C32.523 8.33747 32.1881 8.81342 31.765 9.27174C31.6769 9.34225 31.5359 9.43039 31.4125 9.44802C31.3596 9.44802 31.2891 9.43039 31.2362 9.39514C31.1833 9.35988 31.1657 9.28937 31.2186 9.21886C31.765 8.60188 32.1881 7.93202 32.5759 7.24454C32.9637 6.55705 33.2987 5.86956 33.7394 5.1997C33.8275 5.05868 34.0919 5.12919 34.2153 5.1997C34.3387 5.34073 34.3211 5.517 34.3035 5.65803C34.0743 7.43844 33.8804 9.8182 34.2329 11.0169C34.2506 11.1227 34.4621 11.3166 34.5679 11.3166C34.7794 11.3342 34.9557 11.2108 35.132 11.0698C35.3259 10.9111 35.4669 10.682 35.6079 10.4881C35.6784 10.3647 35.7137 10.2236 35.7666 10.1003C35.8195 9.97686 35.89 9.83583 36.031 9.71244C36.172 9.83583 36.172 9.95923 36.1544 10.065L36.0839 10.3823C36.0134 10.7349 35.7842 11.1227 35.5021 11.44ZM35.5374 1.67413L35.2025 1.48022C34.4974 1.16292 33.7746 0.969015 32.999 0.810364C32.8227 0.792736 32.8051 0.440179 32.9814 0.299156C34.039 0.316784 34.9733 0.68697 35.7489 1.39208C35.8547 1.48022 35.9781 1.63887 35.9428 1.85041C35.7666 1.79752 35.6432 1.72701 35.5374 1.67413Z" fill="#21344A"/>
<path d="M31.5569 5.65803C31.028 5.76379 30.6402 5.86956 30.1114 6.09872C29.6002 6.31026 29.1595 6.69807 28.6835 7.1564C28.2076 7.61472 27.8021 8.16118 27.573 8.79579C27.6259 9.32462 27.7493 9.8182 27.8903 10.2942C28.0313 10.7877 28.2076 11.2637 28.3486 11.7749C28.2957 11.9335 28.1194 11.9864 28.0137 11.8807L27.8021 11.6515C27.3967 10.5057 26.9736 9.35988 26.8502 8.16118C26.7621 7.42081 26.815 6.66282 27.0265 5.90482C27.1147 5.74617 27.1852 5.55226 27.2733 5.39361C27.3614 5.21733 27.4848 5.07631 27.714 4.98817C27.8374 4.98817 27.9784 5.0058 28.0842 5.14682C28.0842 5.39361 27.9079 5.53463 27.8021 5.71091C27.7669 5.78142 27.7316 5.81668 27.7316 5.88719C27.5025 6.3984 27.432 7.05063 27.4496 7.75574C27.7669 7.24453 28.2076 6.82147 28.5778 6.48654C28.8951 6.20449 29.5297 5.83431 29.9351 5.67565C30.3758 5.517 30.5873 5.42886 31.0457 5.34072C31.2396 5.30547 31.5216 5.27021 31.7508 5.37598C31.8037 5.55226 31.6626 5.65803 31.5569 5.65803Z" fill="#21344A"/>
<path d="M25.943 10.2589C25.6962 10.6291 25.3789 10.964 25.0263 11.2461C24.5504 11.6162 24.0216 11.8807 23.4751 11.9335C22.8934 11.9864 22.3293 11.7925 21.9591 11.4047C21.7476 11.1755 21.6065 10.9816 21.5184 10.7877C21.4303 10.6291 21.3774 10.4528 21.3245 10.2765C21.1835 10.3823 20.9896 10.4881 20.8662 10.5233C20.6723 10.5762 20.5136 10.5762 20.2844 10.4704C20.2139 10.3999 20.1434 10.2413 20.2316 10.1002C20.3373 10.0474 20.4431 10.0121 20.5489 9.99448C20.6546 9.95922 20.7428 9.9416 20.8133 9.90634C20.9367 9.85346 21.113 9.73006 21.254 9.65955C21.2011 8.8663 21.2011 8.02016 21.3774 7.2269C21.5008 6.60993 21.7828 5.99295 22.2059 5.517C22.5937 5.1997 23.3341 4.98817 23.81 5.14682C24.427 5.35835 24.8853 6.01058 25.1321 6.57467C25.2026 6.94486 25.044 7.24453 24.8501 7.47369C24.6914 7.64997 24.4975 7.84388 24.3036 8.02016L24.0392 8.26695C23.9687 8.33746 23.8805 8.4256 23.8276 8.49611C23.5456 8.76053 23.2107 9.02495 22.8757 9.27174C22.5408 9.51853 22.2059 9.74769 21.9062 9.9416C21.9943 10.4352 22.153 10.9288 22.6113 11.1932C23.0344 11.44 23.4751 11.4047 23.8805 11.2461C24.2683 11.105 24.6385 10.8759 24.9206 10.6291C25.4494 10.1708 25.8901 9.65955 26.1016 9.0602C26.1898 8.97206 26.3484 9.14834 26.3484 9.21885C26.3308 9.55378 26.1193 9.97685 25.943 10.2589ZM23.81 5.79905C23.4575 5.67565 22.8757 5.74616 22.5937 6.01058C22.3116 6.38077 22.1354 6.80384 22.012 7.27979C21.8357 7.89676 21.8181 8.56662 21.8533 9.23648C22.1883 9.00732 22.5408 8.76053 22.8934 8.49611C23.2812 8.21406 23.6337 7.89676 23.9334 7.57946C24.1626 7.3503 24.4975 7.10351 24.5504 6.75095C24.3917 6.39839 24.1449 6.02821 23.81 5.79905Z" fill="#21344A"/>
<path d="M19.4511 11.4929C19.0809 11.7573 18.7107 11.9512 18.1995 11.9335C17.6002 11.9159 17.0537 11.5281 16.6659 11.0698C16.4191 10.7701 16.2605 10.4881 16.1371 10.1884C16.0137 9.90634 15.9255 9.6243 15.8198 9.28937C15.3262 9.87109 14.7445 10.4352 14.1275 10.8582C14.0217 10.9288 13.8455 10.9464 13.7221 10.8582C13.6163 10.7877 13.5987 10.6115 13.6868 10.5057L14.7445 9.53616C15.097 9.21885 15.4143 8.84867 15.6788 8.47849C15.5201 6.76858 15.4848 4.98817 15.855 3.3664C16.1195 2.25585 16.5954 1.2158 17.3358 0.316781C17.5121 0.105246 17.8999 0.0876187 18.0938 0.263897C18.464 0.792734 18.5168 1.48022 18.5345 2.07957C18.5521 2.78468 18.4816 3.43691 18.3582 4.08914C18.0233 5.76379 17.23 7.26216 16.2957 8.69002C16.4015 9.30699 16.5778 9.95923 16.9303 10.4881C17.1771 10.8759 17.5297 11.1932 17.988 11.3518C18.464 11.4576 18.7813 11.3518 19.1691 11.1227C19.5216 10.8935 19.9447 10.3647 20.1562 9.97685C20.1915 9.87109 20.262 9.73006 20.3854 9.73006C20.4912 9.83583 20.4912 9.92397 20.4735 10.0121C20.4735 10.0826 20.4383 10.1531 20.4207 10.2236C20.2091 10.6996 19.8742 11.1755 19.4511 11.4929ZM17.5826 0.704594C16.9656 1.58599 16.613 2.6084 16.4015 3.6837C16.1371 4.95291 16.1371 6.31026 16.2076 7.63235C16.9303 6.50416 17.5121 5.25258 17.8117 3.91287C18.0233 2.92571 18.0585 1.88566 17.8646 0.810361C17.8294 0.651711 17.6531 0.616455 17.5826 0.704594Z" fill="#21344A"/>
<path d="M13.3342 11.7044C12.5586 11.1403 12.3118 10.347 12.0121 9.50091C11.8887 9.13072 11.8006 8.74291 11.7124 8.35509C11.2365 9.55379 10.6019 10.7877 9.49132 11.6691C9.13876 11.9512 8.5923 12.0569 8.20449 11.8102C7.76379 11.5457 7.56988 11.1227 7.49937 10.6467C7.42886 10.0474 7.53463 9.35988 7.67565 8.84867C8.02821 7.50896 8.76858 6.275 9.91439 5.30547C10.073 5.21733 10.2317 5.12919 10.3903 5.07631C10.5666 5.02343 10.7429 5.02343 10.9192 5.11157C11.3422 5.30547 11.6419 5.67566 11.8006 6.09873C11.9769 6.34552 11.9769 6.7157 12.0121 7.01537C12.0826 7.13877 12.1179 7.24454 12.1708 7.40319C12.2413 8.03779 12.3823 8.60188 12.5586 9.1836C12.8582 10.1179 13.0345 10.8406 13.7573 11.5457C13.7749 11.7749 13.4928 11.7396 13.3342 11.7044ZM11.3246 6.29263C11.1836 6.04584 11.0073 5.81668 10.7782 5.69328C10.6019 5.6404 10.4609 5.69328 10.3198 5.78142C9.77337 6.15161 9.27979 6.82147 8.96249 7.36793C8.57467 8.07305 8.31025 8.83105 8.1516 9.6243C8.13398 9.88872 8.09872 10.1708 8.11635 10.4352C8.13398 10.6996 8.20449 10.9288 8.34551 11.1227C8.50416 11.2813 8.78621 11.3166 8.99774 11.2461C10.2493 10.2765 10.9721 8.93681 11.4304 7.56184C11.4656 7.36793 11.4833 7.1564 11.6067 6.98012C11.5538 6.80384 11.4304 6.48654 11.3246 6.29263Z" fill="#21344A"/>
<path d="M6.38129 4.95291C5.87008 6.20449 4.81241 8.69002 4.33646 9.90634C4.21306 10.206 4.12492 10.5057 4.00153 10.823C3.89576 11.1227 3.75474 11.4223 3.56083 11.7044C3.36692 11.9335 3.04962 11.9512 2.7852 11.8807C2.50316 11.722 2.34451 11.4752 2.20348 11.2108C2.08009 10.964 1.97432 10.682 1.85093 10.4352C1.3926 8.7429 1.14581 7.19165 0.810882 5.37598C0.564092 4.01864 0.334929 2.64366 0.141023 1.30394C0.0881393 0.898502 0 0.528317 0 0.0876201C0.0881393 -0.0181468 0.24679 -0.0181468 0.334929 0.0347371C0.475952 0.105248 0.546464 0.228643 0.599347 0.316783C0.669859 0.91613 0.846138 2.00906 0.916649 2.46738C1.12818 3.70133 1.53362 6.02821 1.74516 7.27979C1.95669 8.02016 2.04483 8.81342 2.23874 9.57141C2.37976 10.1708 2.57367 10.7349 2.92623 11.2284C2.99674 11.3342 3.1025 11.3518 3.13776 11.3342C3.20827 11.2813 3.26116 11.1403 3.27878 11.0698C3.5432 10.4176 3.94864 9.307 4.23069 8.61951C4.75952 7.31505 5.88771 4.58273 6.48706 3.19012L6.61045 2.97859L6.71622 2.74943C6.78673 2.59078 6.87487 2.43213 6.99826 2.34399C7.0864 2.27348 7.22743 2.23822 7.35082 2.25585C7.43896 2.27348 7.47422 2.46738 7.45659 2.55552C7.10403 3.3664 6.62808 4.37119 6.38129 4.95291Z" fill="#21344A"/>
</svg>
